<mxfile host="app.diagrams.net" modified="2020-12-19T07:52:17.349Z" agent="5.0 (Windows NT 10.0; Win64; x64) AppleWebKit/537.36 (KHTML, like Gecko) Chrome/87.0.4280.88 Safari/537.36 Edg/87.0.664.60" etag="XG39vJiAcx3x4fYhfYnd" version="14.1.1" type="github">
  <diagram id="adVhGHhKwL8MY6EKwoYW" name="Page-1">
    <mxGraphModel dx="782" dy="469" grid="1" gridSize="10" guides="1" tooltips="1" connect="1" arrows="1" fold="1" page="1" pageScale="1" pageWidth="850" pageHeight="1100" math="0" shadow="0">
      <root>
        <mxCell id="0" />
        <mxCell id="1" parent="0" />
        <mxCell id="vTwqelp8xWUpoFLLBTXb-1" value="" style="rounded=0;whiteSpace=wrap;html=1;fontFamily=Verdana;" vertex="1" parent="1">
          <mxGeometry x="100" y="120" width="280" height="40" as="geometry" />
        </mxCell>
      </root>
    </mxGraphModel>
  </diagram>
</mxfile>
